
        <svg xmlns="http://www.w3.org/2000/svg" xmlns:xlink="http://www.w3.org/1999/xlink" version="1.1" width="3187.5" 
        height="812.5" viewBox="0 0 3187.5 812.5">
			
			<g transform="scale(9.375) translate(10, 10)">
				<defs id="SvgjsDefs1255"><linearGradient id="SvgjsLinearGradient1260"><stop id="SvgjsStop1261" stop-color="#6d7cff" offset="0"></stop><stop id="SvgjsStop1262" stop-color="#ff51ff" offset="1"></stop></linearGradient></defs><g id="SvgjsG1256" featureKey="symbolFeature-0" transform="matrix(1.0416666666666667,0,0,1.0416666666666667,0,-16.666666666666668)" fill="url(#SvgjsLinearGradient1260)"><path xmlns="http://www.w3.org/2000/svg" d="M82.207,41.768c0.016-0.369,0.028-0.74,0.028-1.114C82.235,27.038,71.188,16,57.56,16c-9.869,0-18.381,5.791-22.327,14.155  c-2.192-1.563-4.9-2.489-7.832-2.489c-7.295,0-13.208,5.717-13.208,12.768c0,1.047,0.134,2.063,0.379,3.036  C6.251,45.242,0,52.768,0,61.786C0,72.12,8.208,80,18.333,80h60.124C88.145,80,96,71.726,96,60.906  C96,51.524,90.093,43.687,82.207,41.768z M58.027,59.018c0,1.681-1.798,3.044-4.016,3.044s-4.016-1.363-4.016-3.044  c0-1.681,1.798-3.044,4.016-3.044v-8.985L46,49.075v13.624c0,0.024-0.022,0.039-0.026,0.062C45.98,62.827,46,62.889,46,62.955  C46,64.637,44.201,66,41.982,66c-2.219,0-4.018-1.363-4.018-3.045c0-1.682,1.799-3.045,4.018-3.045c0.006,0,0.012,0.001,0.018,0.001  V46.406c0-0.041,0.034-0.066,0.043-0.104c0.015-0.094,0.039-0.171,0.1-0.242c0.006-0.006,0.013-0.009,0.019-0.015  c0.062-0.064,0.119-0.136,0.212-0.16l14.569-3.794v0.026c0.524-0.049,1.004,0.283,1.089,0.787  C58.055,43.042,58.027,58.881,58.027,59.018z"></path></g><g id="SvgjsG1257" featureKey="nameFeature-0" transform="matrix(1.31891322081905,0,0,1.31891322081905,115.77947763048836,-4.769457245353863)" fill="#ffffff"><path d="M5.92 40 l-2.72 0 l0 -28.8 l2.72 0 l0 12.36 l17.04 0 l0 -12.36 l2.72 0 l0 28.8 l-2.72 0 l0 -14.12 l-17.04 0 l0 14.12 z M55.36 19.56 l-2.8 0 c-1.12 -4.92 -4.16 -6.8 -9.08 -6.8 c-6.96 0 -9.96 5.96 -9.96 12.76 c0 6.44 2.36 12.92 10.2 12.92 c4.96 0 8.04 -3.36 9.12 -7.92 l2.84 0 c-1.28 5.56 -4.76 10.24 -12.48 10.24 c-8.88 0 -12.4 -7 -12.4 -15.16 c0 -11 5.76 -15.16 13.4 -15.16 c5.92 0 10.24 3.16 11.16 9.12 z M58.4 13.52 l0 -2.32 l20.96 0 l0 2.32 l-9.12 0 l0 26.48 l-2.72 0 l0 -26.48 l-9.12 0 z M85.84 40 l-2.72 0 l0 -28.8 l10.52 0 c7.48 0 9.4 3.72 9.4 8.04 c0 6.44 -5.72 8.04 -11.04 8.04 l-6.16 0 l0 12.72 z M85.84 24.96 l6.24 0 c5.08 0 8.24 -1.04 8.24 -5.92 c0 -3.6 -2.32 -5.52 -7.44 -5.52 l-7.04 0 l0 11.44 z M110.08 40 l-2.4 0 l0 -28.8 l2.4 0 l0 28.8 z M129.76 32.36 l0 -3.24 c-2.04 0.84 -4.12 1 -6.2 1.16 c-3.64 0.28 -5.84 1.6 -5.84 4.4 c0 2.52 2.2 3.72 4.48 3.72 c3.8 0 7.56 -1.84 7.56 -6.04 z M122.39999999999999 28.36 l3.32 -0.44 c0.88 -0.08 2.36 -0.32 3.16 -0.68 s0.88 -1.44 0.88 -2.16 c0 -2.44 -1.44 -4.2 -5.16 -4.2 c-3.32 0 -5.6 1.08 -6.04 4.68 l-2.44 0 c0.36 -4.88 4 -6.84 8.52 -6.84 c4.2 0 7.52 1.64 7.52 6.44 l0 11.28 c0 1.88 0.48 2.32 2.52 1.6 l0 1.88 c-0.36 0.12 -1.2 0.4 -1.88 0.4 c-0.4 0 -0.72 -0.04 -1.08 -0.12 c-1.6 -0.24 -1.88 -1.64 -1.92 -3.08 c-2 2.24 -4.72 3.44 -7.72 3.44 c-3.64 0 -6.92 -1.96 -6.92 -5.96 c0 -3.48 2.4 -5.6 7.24 -6.24 z M138.28 47.88 l0 -2.24 c0.64 0.12 1.32 0.24 2 0.24 c2.72 0 3.12 -3.92 4.04 -5.72 l-8.04 -20.88 l2.68 0 l6.64 17.8 l6.64 -17.8 l2.6 0 l-7.72 20.44 c-1.96 5.2 -3.24 8.44 -6.56 8.44 c-0.84 0 -1.64 -0.12 -2.28 -0.28 z"></path></g>
			</g>
		</svg>
	